<svg width="307" height="285" viewBox="0 0 307 285" fill="none" xmlns="http://www.w3.org/2000/svg">
<path d="M146.089 96.544C131.414 103.616 134.71 120.358 138.193 127.846C127.114 127.846 116.488 108.91 112.56 99.4423C101.181 100.457 75.4595 99.993 63.6028 90.0228C48.782 77.56 49.2679 40.6064 66.5184 14.6664C83.7688 -11.2735 225.174 10.4639 248.377 11.0435C271.58 11.6232 286.523 40.0267 272.674 81.1829C258.825 122.339 164.433 87.7041 146.089 96.544Z" fill="white" stroke="#B1CCFF" stroke-width="2"/>
<path d="M177.528 244.872L184.158 247.419L194.421 239.932L163.616 197.104L130.183 170.807L177.528 244.872Z" fill="#808080"/>
<rect width="11.1483" height="6.2998" transform="matrix(-0.496112 -0.868258 0.86867 -0.495392 145.301 208.143)" fill="#C4C4C4"/>
<path d="M155.277 178.308L153.238 181.902L154.699 184.458L156.325 180.141L155.277 178.308Z" fill="#A7A7A7"/>
<rect width="11.1483" height="6.2998" transform="matrix(-0.496112 -0.868258 0.86867 -0.495392 138.337 195.954)" fill="#C4C4C4"/>
<path d="M187.769 252.49L183.85 247.713C194.138 237.449 203.529 233.946 206.939 233.477L209.115 237.286C198.288 242.985 190.373 249.796 187.769 252.49Z" fill="#A7A7A7"/>
<path d="M146.648 219.347L123.419 183.012C124.717 179.372 128.326 179.006 129.968 179.277L152.749 215.868C152.088 219.168 148.407 219.562 146.648 219.347Z" fill="#A7A7A7"/>
<path d="M125.761 158.801L107.74 131.112C108.742 125.288 113.465 125.659 115.702 126.572L134.207 155.054L125.761 158.801Z" fill="#9B9B9B"/>
<path d="M135.087 161.596L125.614 147.041C126.14 143.98 128.623 144.175 129.798 144.655L139.525 159.626L135.087 161.596Z" fill="#A7A7A7"/>
<path d="M122.285 167.914L124.561 164.298L129.861 173.575L126.023 174.456L122.285 167.914Z" fill="#C4C4C4"/>
<path d="M124.076 159.703L126.352 156.088L131.652 165.364L127.815 166.246L124.076 159.703Z" fill="#C4C4C4"/>
<path fill-rule="evenodd" clip-rule="evenodd" d="M155.034 184.663L160.952 193.484C161.249 191.869 162.219 188.893 163.728 189.91C165.614 191.182 177.909 188.864 179.463 187.264C181.017 185.665 174.276 168.298 171.475 171.411C168.681 174.515 143.357 167.18 142.92 166.609L142.917 166.604L142.918 166.606L142.92 166.609L148.409 174.789C155.39 176.076 166.173 177.656 169.143 176.441C173.632 174.604 174.018 181.223 171.587 182.174C169.55 182.972 159.168 184.515 155.034 184.663ZM134.403 152.952L136.444 151.788L144.962 164.042L142.316 165.551L134.403 152.952Z" fill="#A7A7A7"/>
<path d="M206.81 233.669L194.997 241.356L163.769 197.373L158.364 200.455L165.97 212.309L159.997 216.636L158.943 217.237L155.071 214.989L123.725 164.656L125.227 163.799C125.669 163.548 126.705 162.815 127.32 161.893C127.935 160.972 126.128 157.344 125.148 155.646L134.839 152.466L149.285 174.47C154.873 183.156 166.677 200.64 169.191 201.084C172.333 201.639 179.708 206.584 184.283 210.064C187.944 212.849 185.973 215.745 184.53 216.845C185.746 220.929 195.543 224.201 200.289 225.326L206.81 233.669Z" fill="#9B9B9B"/>
<path d="M130.967 174.55C140.489 174.55 146.653 178.053 148.544 179.805C156.739 197.307 127.777 210.16 125.404 213.562C123.031 216.964 118.358 212.05 115.948 212.05C113.538 212.05 113.389 210.538 109.125 209.026C104.86 207.514 107.271 201.692 103.192 201.125C99.1125 200.558 100.967 197.345 96.7392 196.022C92.5118 194.699 96.5538 190.956 91.7331 190.2C86.9123 189.444 91.3622 186.231 87.654 184.719C83.9457 183.207 85.2066 181.211 85.2066 177.915C85.2066 172.396 111.312 152.701 111.313 155.007C120.42 156.277 128.21 168.565 130.967 174.55Z" fill="white"/>
<path d="M3.32566 120.853C97.5302 120.853 98.9555 152.849 109.374 154.266C117.609 157.495 124.807 167.321 87.7229 180.795C84.3293 179.445 86.3994 177.757 82.3271 177.588C78.2549 177.42 83.6846 170.197 75.3704 172.897C67.0562 175.597 69.6353 171.716 64.2057 171.716C59.8619 171.716 60.3823 169.691 61.1854 168.678C59.8846 169.184 56.4005 169.691 52.8713 167.666C50.0465 166.045 52.9957 164.092 54.5474 163.286C50.9742 164.75 43.0607 161.452 41.3672 159.768C40.4094 158.815 43.1818 157.648 45.2598 156.993C40.9762 157.304 31.6927 155.823 30.3043 154.266C29.0283 152.835 33.3245 150.385 35.6321 149.339C31.1187 149.564 21.8883 149.676 21.0738 148.326C20.3805 147.177 25.0809 144.772 28.6017 143.235C22.1407 145.61 16.7002 143.825 14.6601 142.521C21.7639 138.437 33.9829 131.396 26.0284 135.906C18.074 140.415 12.3072 137.784 10.4181 135.906C17.3636 134.027 28.9808 130.269 19.8861 130.269C10.7914 130.269 2.83926 128.064 0 126.962C8.51777 126.331 23.3747 124.977 14.6601 124.599C5.94547 124.221 3.47272 121.944 3.32566 120.853Z" fill="white"/>
<path d="M176.033 173.551C166.511 173.551 160.347 177.054 158.456 178.806C150.261 196.308 179.223 209.161 181.596 212.563C183.969 215.965 188.642 211.051 191.052 211.051C193.462 211.051 193.611 209.539 197.875 208.027C202.14 206.515 199.729 200.693 203.808 200.126C207.887 199.559 206.033 196.346 210.261 195.023C214.488 193.7 210.446 189.957 215.267 189.201C220.088 188.445 215.638 185.232 219.346 183.72C223.054 182.208 221.793 180.212 221.793 176.916C221.793 171.397 195.688 151.702 195.687 154.008C186.58 155.278 178.79 167.566 176.033 173.551Z" fill="white"/>
<path d="M303.674 117.855C209.47 117.855 208.045 150.918 197.626 152.383C189.391 155.719 182.193 165.873 219.277 179.796C222.671 178.401 220.601 176.657 224.673 176.482C228.745 176.308 223.315 168.845 231.63 171.635C239.944 174.425 237.365 170.414 242.794 170.414C247.138 170.414 246.618 168.321 245.815 167.275C247.115 167.798 250.599 168.321 254.129 166.229C256.953 164.554 254.004 162.536 252.453 161.704C256.026 163.216 263.939 159.808 265.633 158.068C266.591 157.084 263.818 155.877 261.74 155.201C266.024 155.522 275.307 153.992 276.696 152.383C277.972 150.904 273.675 148.372 271.368 147.291C275.881 147.524 285.112 147.64 285.926 146.245C286.619 145.057 281.919 142.572 278.398 140.984C284.859 143.438 290.3 141.594 292.34 140.246C285.236 136.026 273.017 128.751 280.972 133.41C288.926 138.07 294.693 135.352 296.582 133.41C289.636 131.469 278.019 127.586 287.114 127.586C296.209 127.586 304.161 125.307 307 124.168C298.482 123.517 283.625 122.117 292.34 121.727C301.055 121.336 303.527 118.983 303.674 117.855Z" fill="white"/>
<path d="M133.455 179.563C140.095 175.446 146.246 139.623 148.492 122.226C155.241 121.19 167.81 119.739 164.088 122.226C159.435 125.335 160.44 130.48 157.35 146.508C154.261 162.536 164.088 174.899 177.078 184.189C190.068 193.48 179.125 223.944 168.74 243.562C158.355 263.18 148.492 261.662 129.807 255.962C111.122 250.262 116.817 231.717 116.817 211.581C116.817 191.444 125.154 184.708 133.455 179.563Z" fill="white"/>
<path d="M129.079 268.262C134.538 258.468 132.635 253.382 131.001 252.064C127.549 250.595 127.314 253.91 127.039 262.197C126.765 270.484 123.47 275.08 121.705 277.076C119.94 279.073 110.331 282.463 112.253 283.141C113.79 283.684 117.077 281.961 118.528 281.032C117.116 283.443 115.775 287.104 121.705 282.463C129.118 276.662 137.864 281.672 138.806 281.032C139.559 280.519 137.943 279.236 137.041 278.659C135.668 278.433 132.154 277.8 129.079 277.076C126.004 276.353 127.798 270.899 129.079 268.262Z" fill="#FF6B0A"/>
<path d="M155.554 268.262C150.296 258.468 152.129 253.382 153.703 252.064C157.027 250.595 157.253 253.91 157.518 262.197C157.782 270.484 160.955 275.08 162.654 277.076C164.354 279.073 173.607 282.463 171.757 283.141C170.276 283.684 167.111 281.961 165.714 281.032C167.073 283.443 168.365 287.104 162.654 282.463C155.516 276.662 147.094 281.672 146.187 281.032C145.462 280.519 147.018 279.236 147.887 278.659C149.209 278.433 152.593 277.8 155.554 277.076C158.515 276.353 156.788 270.899 155.554 268.262Z" fill="#FF6B0A"/>
<path d="M149.178 108.112C149.386 102.774 154.508 102.75 157.044 103.405C163.871 101.88 162.943 111.263 164.501 113.19C166.06 115.118 165.948 117.008 165.429 122.642C164.909 128.277 157.044 133.244 152.999 132.688C148.955 132.132 146.321 126.423 144.725 120.678C143.13 114.932 148.918 114.784 149.178 108.112Z" fill="white"/>
<ellipse rx="1.33447" ry="2.09517" transform="matrix(-0.978904 0.204319 0.204697 0.978825 163.102 110.394)" fill="#0D070C"/>
<ellipse rx="1.3345" ry="2.09511" transform="matrix(0.992694 0.120662 -0.120892 0.992666 148.973 110.629)" fill="#0D070C"/>
<ellipse rx="3.22473" ry="4.53919" transform="matrix(0.920986 0.389595 -0.390232 0.920717 162.207 120.299)" fill="url(#paint0_radial_74707_345)"/>
<ellipse rx="3.22417" ry="4.53997" transform="matrix(0.817591 -0.575799 0.576541 0.817068 148.546 119.836)" fill="url(#paint1_radial_74707_345)"/>
<ellipse opacity="0.2" rx="0.598137" ry="0.939384" transform="matrix(-0.895246 0.445571 0.44626 0.894903 149.024 109.931)" fill="white"/>
<ellipse opacity="0.2" rx="0.598137" ry="0.939384" transform="matrix(-0.895246 0.445571 0.44626 0.894903 163.136 109.545)" fill="white"/>
<path d="M161.476 113.809C161.5 107.174 155.094 106.338 155.125 106.419C148.804 108.401 149.621 114.085 149.884 114.92C150.606 117.219 146.816 119.438 148.078 121.812C149.339 124.186 149.538 129.232 150.64 132.712C151.316 134.845 152.231 135.595 152.862 135.769C152.696 135.778 152.766 135.783 152.934 135.787C153.096 135.822 153.238 135.818 153.347 135.791C153.193 135.79 153.043 135.789 152.934 135.787C152.91 135.782 152.887 135.776 152.862 135.769C153.081 135.758 153.709 135.741 155.061 135.718C158.875 135.651 158.901 130.646 161.944 124.798C164.987 118.95 161.447 122.103 161.476 113.809Z" fill="#FF6B0A"/>
<path d="M154.958 133.292C157.994 132.896 158.691 126.096 158.66 122.745C156.77 122.412 152.685 122.007 151.47 123.05C149.951 124.354 151.163 133.786 154.958 133.292Z" fill="#1F0C02"/>
<path d="M154.303 132.462C152.158 132.286 152.633 127.592 153.138 125.267L157.281 125.091C157.182 127.621 156.447 132.638 154.303 132.462Z" fill="#956C7C"/>
<path d="M154.468 130.782C154.014 130.486 154.461 125.843 154.742 123.558L155.656 123.616C155.449 126.128 154.922 131.078 154.468 130.782Z" fill="#86616F"/>
<path d="M159.789 120.124C157.546 115.834 158.643 113.357 159.472 112.655C156.092 108.566 152.508 111.187 151.138 113.008C153.749 117.187 151.794 113.838 150.503 120.518C149.471 125.861 153.043 127.511 154.958 127.668C157.503 126.94 162.032 124.413 159.789 120.124Z" fill="#EA5F03"/>
<path d="M150.337 122.737C154.932 115.908 158.738 120.601 160.066 123.801C159.678 125.152 158.09 127.822 154.841 127.693C151.592 127.564 150.484 124.335 150.337 122.737Z" fill="#EFE5D5"/>
<path d="M155.744 121.672C155.773 121.105 155.92 120.054 156.271 120.379C156.622 120.704 156.066 121.376 155.744 121.672Z" fill="#DACAB0"/>
<path d="M154.67 121.72C154.682 121.153 154.612 120.093 154.238 120.392C153.864 120.691 154.37 121.402 154.67 121.72Z" fill="#DACAB0"/>
<path d="M151.853 99.2702L151.627 104.12C154.382 106.55 159.24 105.41 161.325 104.536L161.482 99.5911L151.853 99.2702Z" fill="#373500"/>
<path d="M151.627 104.12C152.349 106.704 155.347 110.164 161.314 104.5L151.627 104.12Z" fill="#373500"/>
<ellipse rx="4.82426" ry="0.831066" transform="matrix(-0.999781 -0.0278888 -0.0279331 0.99944 156.656 99.432)" fill="#373500"/>
<path d="M151.853 99.2702L151.627 104.12C154.382 106.55 159.24 105.41 161.325 104.536L161.482 99.5911C161.482 99.5911 160.703 99.7322 160.2 99.7211C159.598 99.7077 158.679 99.46 158.679 99.46L155.883 103.678L154.46 99.1517C154.46 99.1517 153.686 99.5428 153.151 99.5626C152.632 99.5817 151.853 99.2702 151.853 99.2702Z" fill="#4B4800"/>
<path d="M156.959 100.002C156.935 100.014 156.916 100.023 156.898 100.034C156.751 100.122 156.657 100.232 156.611 100.395C156.591 100.464 156.58 100.536 156.565 100.606C156.552 100.668 156.539 100.728 156.525 100.79C156.521 100.806 156.522 100.813 156.541 100.817C156.58 100.824 156.612 100.846 156.625 100.885C156.636 100.92 156.627 100.952 156.604 100.978C156.58 101.005 156.548 101.013 156.513 101.011C156.495 101.009 156.484 101.001 156.477 100.984C156.415 100.855 156.385 100.719 156.381 100.577C156.379 100.459 156.399 100.343 156.415 100.228C156.424 100.163 156.43 100.096 156.441 100.03C156.447 99.9892 156.45 99.9498 156.444 99.9084C156.437 99.867 156.422 99.8283 156.396 99.7921C156.363 99.8203 156.34 99.8553 156.328 99.8949C156.317 99.9323 156.311 99.9724 156.306 100.01C156.301 100.052 156.301 100.094 156.299 100.134C156.292 100.242 156.286 100.35 156.275 100.457C156.257 100.636 156.195 100.799 156.089 100.943C156.075 100.963 156.058 100.967 156.037 100.962C155.981 100.952 155.943 100.906 155.949 100.854C155.953 100.805 156 100.766 156.055 100.769C156.075 100.769 156.077 100.763 156.076 100.746C156.074 100.661 156.073 100.575 156.072 100.49C156.069 100.393 156.073 100.296 156.042 100.203C156.001 100.079 155.932 99.9918 155.829 99.9107C155.821 99.9053 155.813 99.8999 155.802 99.8919C155.801 99.9023 155.801 99.9092 155.8 99.9161C155.757 100.363 155.715 100.791 155.672 101.237C155.67 101.262 155.67 101.262 155.694 101.265C155.786 101.274 155.879 101.283 155.971 101.291C155.987 101.293 155.993 101.298 155.995 101.315C156.01 101.44 156.063 101.547 156.157 101.633C156.176 101.651 156.193 101.674 156.211 101.694C156.269 101.639 156.346 101.605 156.397 101.539C156.439 101.485 156.474 101.426 156.493 101.361C156.498 101.346 156.505 101.342 156.519 101.343C156.613 101.352 156.706 101.361 156.8 101.371C156.817 101.372 156.824 101.369 156.826 101.351C156.869 100.902 156.911 100.471 156.954 100.022C156.957 100.02 156.957 100.015 156.959 100.002ZM156.837 100.198C156.839 100.199 156.842 100.2 156.844 100.201C156.844 100.209 156.843 100.217 156.842 100.225C156.821 100.441 156.802 100.639 156.781 100.855C156.778 100.891 156.778 100.891 156.74 100.887C156.726 100.886 156.72 100.882 156.718 100.868C156.708 100.824 156.683 100.789 156.647 100.764C156.631 100.753 156.63 100.743 156.634 100.727C156.652 100.648 156.672 100.569 156.686 100.49C156.702 100.407 156.727 100.347 156.776 100.278C156.795 100.25 156.816 100.225 156.837 100.198ZM155.879 100.109C155.881 100.109 155.882 100.108 155.885 100.108C155.891 100.118 155.897 100.128 155.902 100.138C155.94 100.211 155.972 100.269 155.976 100.352C155.98 100.457 155.981 100.562 155.984 100.667C155.985 100.682 155.981 100.69 155.966 100.697C155.926 100.715 155.895 100.744 155.875 100.785C155.867 100.804 155.853 100.807 155.824 100.799C155.805 100.793 155.814 100.78 155.815 100.77C155.836 100.551 155.856 100.349 155.877 100.128C155.876 100.121 155.877 100.114 155.879 100.109ZM156.52 101.107C156.526 101.106 156.533 101.106 156.541 101.104C156.616 101.095 156.676 101.065 156.707 100.992C156.711 100.982 156.716 100.978 156.727 100.98C156.735 100.981 156.743 100.982 156.751 100.983C156.763 100.984 156.767 100.989 156.766 101C156.757 101.087 156.749 101.175 156.739 101.261C156.739 101.266 156.729 101.275 156.724 101.275C156.661 101.27 156.597 101.264 156.535 101.256C156.53 101.256 156.521 101.247 156.521 101.242C156.52 101.198 156.52 101.154 156.52 101.107ZM156.022 101.059C156.013 101.105 156.003 101.148 155.994 101.192C155.992 101.205 155.983 101.204 155.973 101.203C155.914 101.197 155.856 101.191 155.797 101.186C155.778 101.184 155.773 101.177 155.776 101.16C155.784 101.082 155.791 101.005 155.798 100.927C155.802 100.891 155.802 100.891 155.838 100.894C155.848 100.895 155.858 100.896 155.86 100.909C155.874 100.979 155.921 101.021 155.984 101.047C155.997 101.052 156.011 101.054 156.022 101.059ZM156.3 100.757C156.324 100.849 156.348 100.939 156.391 101.025C156.352 101.045 156.316 101.065 156.279 101.084C156.274 101.087 156.263 101.083 156.257 101.079C156.229 101.058 156.203 101.034 156.175 101.013C156.166 101.006 156.164 101 156.171 100.991C156.221 100.924 156.257 100.851 156.29 100.775C156.294 100.77 156.297 100.763 156.3 100.757ZM156.396 101.334C156.395 101.394 156.319 101.508 156.279 101.519C156.278 101.518 156.277 101.517 156.277 101.517C156.283 101.457 156.288 101.397 156.295 101.338C156.295 101.333 156.304 101.327 156.309 101.326C156.338 101.327 156.367 101.331 156.396 101.334ZM156.181 101.512C156.134 101.478 156.088 101.349 156.101 101.304C156.126 101.307 156.154 101.309 156.18 101.312C156.195 101.313 156.199 101.319 156.198 101.333C156.193 101.382 156.188 101.43 156.184 101.479C156.184 101.489 156.183 101.499 156.181 101.512ZM156.364 101.239C156.349 101.237 156.332 101.237 156.318 101.233C156.313 101.233 156.305 101.222 156.306 101.219C156.318 101.169 156.355 101.128 156.405 101.121C156.415 101.12 156.421 101.123 156.422 101.134C156.424 101.165 156.424 101.197 156.426 101.23C156.426 101.241 156.418 101.245 156.408 101.244C156.394 101.242 156.379 101.24 156.364 101.239ZM156.15 101.218C156.136 101.217 156.123 101.215 156.109 101.214C156.095 101.214 156.088 101.207 156.092 101.193C156.098 101.164 156.104 101.136 156.112 101.107C156.115 101.094 156.123 101.091 156.136 101.097C156.179 101.114 156.214 101.165 156.211 101.21C156.21 101.214 156.201 101.222 156.197 101.222C156.18 101.222 156.165 101.219 156.15 101.218Z" fill="#FFD500"/>
<path d="M141.066 162.606C148.597 165.332 154.772 162.899 158.393 161.234L159.283 163.792C151.128 168.146 144.022 166.64 140.435 165.015L141.066 162.606Z" fill="#005BBB"/>
<path d="M140.398 165.163C149.425 168.768 155.712 165.529 159.357 163.903L160.396 166.461C152.172 170.729 143.349 168.872 139.804 167.202L140.398 165.163Z" fill="#FFD500"/>
<path d="M139.997 166.707C134.664 166.693 125.6 170.472 131.942 184.301C138.237 198.028 138.917 207.18 135.025 205.975C134.997 205.964 134.968 205.955 134.938 205.946C134.967 205.956 134.996 205.966 135.025 205.975C136.1 206.389 135.409 208.607 135.917 209.382C140.336 209.677 141.128 201.135 132.626 184.02C130.619 179.43 129.806 170 139.304 169.01L139.997 166.707Z" fill="#FFD500"/>
<path d="M140.986 163.376C135.624 162.475 129.671 162.731 134.46 177.831C139.201 192.776 132.87 192.605 129.003 190.61C128.966 190.588 128.926 190.567 128.883 190.547C128.923 190.568 128.963 190.589 129.003 190.61C129.948 191.183 128.633 192.54 129.05 193.401C133.461 194.435 140.861 192.734 135.18 177.659C133.689 172.663 130.731 164.704 140.398 165.276L140.986 163.376Z" fill="#005BBB"/>
<path d="M116.5 212.264C159.807 240.139 167.893 198.945 166.273 174.951L169 173.802H172.283C176.291 237.201 135.311 233.581 116.5 220.756V212.264Z" fill="#9B9B9B"/>
<path d="M146.664 32.5663V34.2616H141.461V43.9413H139.32V32.5663H146.664ZM146.367 39.8007V39.6366C146.367 39.0168 146.456 38.4465 146.633 37.9257C146.81 37.3996 147.068 36.9439 147.406 36.5585C147.745 36.1731 148.159 35.8736 148.648 35.66C149.138 35.4413 149.695 35.3319 150.32 35.3319C150.956 35.3319 151.518 35.4413 152.008 35.66C152.503 35.8736 152.919 36.1731 153.258 36.5585C153.596 36.9439 153.854 37.3996 154.031 37.9257C154.208 38.4465 154.297 39.0168 154.297 39.6366V39.8007C154.297 40.4152 154.208 40.9856 154.031 41.5116C153.854 42.0324 153.596 42.4882 153.258 42.8788C152.919 43.2642 152.505 43.5637 152.016 43.7772C151.526 43.9908 150.966 44.0975 150.336 44.0975C149.711 44.0975 149.151 43.9908 148.656 43.7772C148.161 43.5637 147.745 43.2642 147.406 42.8788C147.068 42.4882 146.81 42.0324 146.633 41.5116C146.456 40.9856 146.367 40.4152 146.367 39.8007ZM148.43 39.6366V39.8007C148.43 40.1705 148.466 40.5168 148.539 40.8397C148.612 41.1626 148.724 41.4465 148.875 41.6913C149.026 41.9361 149.221 42.1288 149.461 42.2694C149.706 42.4048 149.997 42.4725 150.336 42.4725C150.669 42.4725 150.956 42.4048 151.195 42.2694C151.435 42.1288 151.63 41.9361 151.781 41.6913C151.938 41.4465 152.052 41.1626 152.125 40.8397C152.198 40.5168 152.234 40.1705 152.234 39.8007V39.6366C152.234 39.272 152.198 38.9309 152.125 38.6132C152.052 38.2902 151.938 38.0064 151.781 37.7616C151.63 37.5116 151.432 37.3163 151.188 37.1757C150.948 37.0298 150.659 36.9569 150.32 36.9569C149.987 36.9569 149.701 37.0298 149.461 37.1757C149.221 37.3163 149.026 37.5116 148.875 37.7616C148.724 38.0064 148.612 38.2902 148.539 38.6132C148.466 38.9309 148.43 39.272 148.43 39.6366ZM159.695 35.4882V43.9413H157.625V35.4882H159.695ZM162.445 35.4882V37.0975H154.922V35.4882H162.445ZM163.008 39.8007V39.6366C163.008 39.0168 163.096 38.4465 163.273 37.9257C163.451 37.3996 163.708 36.9439 164.047 36.5585C164.385 36.1731 164.799 35.8736 165.289 35.66C165.779 35.4413 166.336 35.3319 166.961 35.3319C167.596 35.3319 168.159 35.4413 168.648 35.66C169.143 35.8736 169.56 36.1731 169.898 36.5585C170.237 36.9439 170.495 37.3996 170.672 37.9257C170.849 38.4465 170.938 39.0168 170.938 39.6366V39.8007C170.938 40.4152 170.849 40.9856 170.672 41.5116C170.495 42.0324 170.237 42.4882 169.898 42.8788C169.56 43.2642 169.146 43.5637 168.656 43.7772C168.167 43.9908 167.607 44.0975 166.977 44.0975C166.352 44.0975 165.792 43.9908 165.297 43.7772C164.802 43.5637 164.385 43.2642 164.047 42.8788C163.708 42.4882 163.451 42.0324 163.273 41.5116C163.096 40.9856 163.008 40.4152 163.008 39.8007ZM165.07 39.6366V39.8007C165.07 40.1705 165.107 40.5168 165.18 40.8397C165.253 41.1626 165.365 41.4465 165.516 41.6913C165.667 41.9361 165.862 42.1288 166.102 42.2694C166.346 42.4048 166.638 42.4725 166.977 42.4725C167.31 42.4725 167.596 42.4048 167.836 42.2694C168.076 42.1288 168.271 41.9361 168.422 41.6913C168.578 41.4465 168.693 41.1626 168.766 40.8397C168.839 40.5168 168.875 40.1705 168.875 39.8007V39.6366C168.875 39.272 168.839 38.9309 168.766 38.6132C168.693 38.2902 168.578 38.0064 168.422 37.7616C168.271 37.5116 168.073 37.3163 167.828 37.1757C167.589 37.0298 167.299 36.9569 166.961 36.9569C166.628 36.9569 166.341 37.0298 166.102 37.1757C165.862 37.3163 165.667 37.5116 165.516 37.7616C165.365 38.0064 165.253 38.2902 165.18 38.6132C165.107 38.9309 165.07 39.272 165.07 39.6366ZM176.594 40.3632H173.914L173.898 38.9647H176.102C176.43 38.9647 176.698 38.9309 176.906 38.8632C177.115 38.7955 177.268 38.6939 177.367 38.5585C177.471 38.4231 177.523 38.259 177.523 38.0663C177.523 37.8996 177.492 37.7564 177.43 37.6366C177.367 37.5116 177.273 37.41 177.148 37.3319C177.029 37.2538 176.875 37.1965 176.688 37.16C176.505 37.1184 176.292 37.0975 176.047 37.0975H174.648V43.9413H172.578V35.4882H176.047C176.594 35.4882 177.086 35.5376 177.523 35.6366C177.961 35.7303 178.333 35.8736 178.641 36.0663C178.948 36.259 179.182 36.5038 179.344 36.8007C179.51 37.0923 179.594 37.4361 179.594 37.8319C179.594 38.0923 179.536 38.3371 179.422 38.5663C179.307 38.7955 179.138 38.9986 178.914 39.1757C178.69 39.3527 178.414 39.4986 178.086 39.6132C177.758 39.7225 177.383 39.7902 176.961 39.8163L176.594 40.3632ZM176.594 43.9413H173.359L174.125 42.3319H176.594C176.896 42.3319 177.146 42.2955 177.344 42.2225C177.542 42.1444 177.688 42.0324 177.781 41.8866C177.88 41.7408 177.93 41.5637 177.93 41.3553C177.93 41.1522 177.883 40.9777 177.789 40.8319C177.701 40.6809 177.557 40.5663 177.359 40.4882C177.167 40.4048 176.911 40.3632 176.594 40.3632H174.461L174.477 38.9647H176.953L177.5 39.5194C178.062 39.5559 178.529 39.6705 178.898 39.8632C179.268 40.0507 179.544 40.2902 179.727 40.5819C179.909 40.8684 180 41.1835 180 41.5272C180 41.9283 179.924 42.2798 179.773 42.5819C179.622 42.884 179.401 43.1366 179.109 43.3397C178.818 43.5376 178.461 43.6887 178.039 43.7928C177.617 43.8918 177.135 43.9413 176.594 43.9413ZM183.586 40.996L186.664 35.4882H188.734V43.9413H186.664V38.4257L183.586 43.9413H181.516V35.4882H183.586V40.996ZM192.695 40.996L195.773 35.4882H197.844V43.9413H195.773V38.4257L192.695 43.9413H190.625V35.4882H192.695V40.996ZM195.391 32.1678H196.891C196.891 32.6053 196.784 32.9934 196.57 33.3319C196.357 33.6705 196.052 33.9361 195.656 34.1288C195.266 34.3163 194.802 34.41 194.266 34.41C193.458 34.41 192.818 34.2017 192.344 33.785C191.87 33.3684 191.633 32.8293 191.633 32.1678H193.133C193.133 32.4439 193.219 32.6913 193.391 32.91C193.562 33.1288 193.854 33.2382 194.266 33.2382C194.677 33.2382 194.966 33.1288 195.133 32.91C195.305 32.6913 195.391 32.4439 195.391 32.1678ZM125.883 59.7928V59.9569C125.883 60.5611 125.815 61.1158 125.68 61.621C125.549 62.1262 125.352 62.5637 125.086 62.9335C124.826 63.3033 124.503 63.5897 124.117 63.7928C123.732 63.996 123.286 64.0975 122.781 64.0975C122.328 64.0975 121.932 64.0168 121.594 63.8553C121.26 63.6887 120.979 63.4569 120.75 63.16C120.526 62.858 120.344 62.5064 120.203 62.1053C120.068 61.6991 119.966 61.259 119.898 60.785V58.8788C119.966 58.3684 120.068 57.8996 120.203 57.4725C120.339 57.0402 120.521 56.6652 120.75 56.3475C120.979 56.0246 121.258 55.7746 121.586 55.5975C121.919 55.4205 122.312 55.3319 122.766 55.3319C123.177 55.3319 123.547 55.4022 123.875 55.5428C124.203 55.6835 124.492 55.8866 124.742 56.1522C124.992 56.4126 125.201 56.7277 125.367 57.0975C125.539 57.4621 125.667 57.8736 125.75 58.3319C125.839 58.785 125.883 59.272 125.883 59.7928ZM123.812 59.9569V59.7928C123.812 59.4856 123.794 59.1913 123.758 58.91C123.721 58.6236 123.664 58.3632 123.586 58.1288C123.508 57.8944 123.406 57.6887 123.281 57.5116C123.156 57.3345 123.005 57.1991 122.828 57.1053C122.651 57.0064 122.448 56.9569 122.219 56.9569C121.865 56.9569 121.573 57.022 121.344 57.1522C121.12 57.2824 120.951 57.4621 120.836 57.6913C120.727 57.9205 120.661 58.1887 120.641 58.496V61.1757C120.667 61.4361 120.737 61.6626 120.852 61.8553C120.966 62.0481 121.135 62.1991 121.359 62.3085C121.589 62.4178 121.88 62.4725 122.234 62.4725C122.521 62.4725 122.763 62.41 122.961 62.285C123.164 62.1548 123.328 61.9777 123.453 61.7538C123.578 61.5246 123.669 61.259 123.727 60.9569C123.784 60.6496 123.812 60.3163 123.812 59.9569ZM115.383 59.9569V59.7928C115.383 59.272 115.424 58.785 115.508 58.3319C115.596 57.8736 115.727 57.4621 115.898 57.0975C116.07 56.7277 116.281 56.4126 116.531 56.1522C116.781 55.8866 117.07 55.6835 117.398 55.5428C117.727 55.4022 118.094 55.3319 118.5 55.3319C118.953 55.3319 119.344 55.4205 119.672 55.5975C120 55.7746 120.276 56.0246 120.5 56.3475C120.724 56.6652 120.904 57.0402 121.039 57.4725C121.174 57.8996 121.279 58.3684 121.352 58.8788V60.7069C121.284 61.1913 121.18 61.6418 121.039 62.0585C120.904 62.4699 120.721 62.8293 120.492 63.1366C120.268 63.4439 119.992 63.6809 119.664 63.8475C119.336 64.0142 118.943 64.0975 118.484 64.0975C117.984 64.0975 117.542 63.996 117.156 63.7928C116.771 63.5897 116.445 63.3033 116.18 62.9335C115.919 62.5637 115.721 62.1262 115.586 61.621C115.451 61.1158 115.383 60.5611 115.383 59.9569ZM117.453 59.7928V59.9569C117.453 60.3163 117.479 60.6496 117.531 60.9569C117.589 61.259 117.677 61.5246 117.797 61.7538C117.922 61.9777 118.083 62.1548 118.281 62.285C118.479 62.41 118.721 62.4725 119.008 62.4725C119.367 62.4725 119.659 62.4152 119.883 62.3007C120.107 62.1809 120.276 62.0194 120.391 61.8163C120.51 61.608 120.581 61.3658 120.602 61.0897V58.496C120.586 58.1887 120.521 57.9205 120.406 57.6913C120.292 57.4621 120.122 57.2824 119.898 57.1522C119.674 57.022 119.383 56.9569 119.023 56.9569C118.737 56.9569 118.492 57.0324 118.289 57.1835C118.091 57.3293 117.93 57.5324 117.805 57.7928C117.685 58.0533 117.596 58.3553 117.539 58.6991C117.482 59.0428 117.453 59.4074 117.453 59.7928ZM119.57 67.1913V51.9413H121.648V67.1913H119.57ZM132.07 62.1444V58.246C132.07 57.9595 132.021 57.7121 131.922 57.5038C131.823 57.2955 131.672 57.134 131.469 57.0194C131.266 56.9048 131.008 56.8475 130.695 56.8475C130.419 56.8475 130.177 56.8944 129.969 56.9882C129.766 57.0819 129.609 57.2147 129.5 57.3866C129.391 57.5533 129.336 57.746 129.336 57.9647H127.266C127.266 57.6158 127.349 57.285 127.516 56.9725C127.682 56.6548 127.919 56.3736 128.227 56.1288C128.539 55.8788 128.911 55.6835 129.344 55.5428C129.781 55.4022 130.271 55.3319 130.812 55.3319C131.453 55.3319 132.023 55.4413 132.523 55.66C133.029 55.8736 133.424 56.1965 133.711 56.6288C134.003 57.0611 134.148 57.6053 134.148 58.2616V61.9491C134.148 62.371 134.174 62.733 134.227 63.035C134.284 63.3319 134.367 63.5897 134.477 63.8085V63.9413H132.375C132.276 63.7277 132.201 63.4569 132.148 63.1288C132.096 62.7955 132.07 62.4673 132.07 62.1444ZM132.359 58.7928L132.375 60.0194H131.07C130.747 60.0194 130.464 60.0533 130.219 60.121C129.974 60.1835 129.773 60.2772 129.617 60.4022C129.461 60.522 129.344 60.6678 129.266 60.8397C129.188 61.0064 129.148 61.1965 129.148 61.41C129.148 61.6184 129.195 61.8059 129.289 61.9725C129.388 62.1392 129.529 62.272 129.711 62.371C129.898 62.4647 130.117 62.5116 130.367 62.5116C130.732 62.5116 131.049 62.4387 131.32 62.2928C131.591 62.1418 131.802 61.9595 131.953 61.746C132.104 61.5324 132.185 61.3293 132.195 61.1366L132.789 62.0272C132.716 62.2408 132.607 62.4673 132.461 62.7069C132.315 62.9465 132.128 63.1705 131.898 63.3788C131.669 63.5871 131.393 63.759 131.07 63.8944C130.747 64.0298 130.372 64.0975 129.945 64.0975C129.398 64.0975 128.909 63.9882 128.477 63.7694C128.044 63.5507 127.703 63.2512 127.453 62.871C127.203 62.4908 127.078 62.0585 127.078 61.5741C127.078 61.1262 127.161 60.7303 127.328 60.3866C127.495 60.0428 127.742 59.7538 128.07 59.5194C128.398 59.2798 128.805 59.1001 129.289 58.9803C129.779 58.8553 130.339 58.7928 130.969 58.7928H132.359ZM138.07 57.1132V67.1913H136V55.4882H137.914L138.07 57.1132ZM143.5 59.6288V59.7928C143.5 60.4074 143.427 60.9777 143.281 61.5038C143.141 62.0246 142.932 62.4803 142.656 62.871C142.38 63.2564 142.036 63.5585 141.625 63.7772C141.219 63.9908 140.75 64.0975 140.219 64.0975C139.698 64.0975 139.245 63.9986 138.859 63.8007C138.474 63.5975 138.148 63.3111 137.883 62.9413C137.617 62.5715 137.404 62.1418 137.242 61.6522C137.086 61.1574 136.969 60.6184 136.891 60.035V59.5116C136.969 58.8918 137.086 58.3293 137.242 57.8241C137.404 57.3137 137.617 56.8736 137.883 56.5038C138.148 56.1288 138.471 55.8397 138.852 55.6366C139.237 55.4335 139.688 55.3319 140.203 55.3319C140.74 55.3319 141.211 55.4335 141.617 55.6366C142.029 55.8397 142.375 56.1314 142.656 56.5116C142.938 56.8918 143.148 57.3449 143.289 57.871C143.43 58.397 143.5 58.983 143.5 59.6288ZM141.43 59.7928V59.6288C141.43 59.2538 141.396 58.9074 141.328 58.5897C141.26 58.2668 141.156 57.9856 141.016 57.746C140.875 57.5012 140.693 57.3111 140.469 57.1757C140.245 57.0402 139.974 56.9725 139.656 56.9725C139.339 56.9725 139.065 57.0246 138.836 57.1288C138.607 57.233 138.419 57.3814 138.273 57.5741C138.128 57.7668 138.013 57.996 137.93 58.2616C137.852 58.522 137.799 58.8111 137.773 59.1288V60.4257C137.82 60.8111 137.911 61.1574 138.047 61.4647C138.182 61.772 138.38 62.0168 138.641 62.1991C138.906 62.3814 139.25 62.4725 139.672 62.4725C139.99 62.4725 140.26 62.4022 140.484 62.2616C140.708 62.121 140.891 61.9283 141.031 61.6835C141.172 61.4335 141.273 61.147 141.336 60.8241C141.398 60.5012 141.43 60.1574 141.43 59.7928ZM145.023 55.4882H147.094V62.3163H149.602V55.4882H151.68V62.3163H154.188V55.4882H156.25V63.9413H145.023V55.4882ZM160.266 60.996L163.344 55.4882H165.414V63.9413H163.344V58.4257L160.266 63.9413H158.195V55.4882H160.266V60.996ZM169.352 57.1132V67.1913H167.281V55.4882H169.195L169.352 57.1132ZM174.781 59.6288V59.7928C174.781 60.4074 174.708 60.9777 174.562 61.5038C174.422 62.0246 174.214 62.4803 173.938 62.871C173.661 63.2564 173.318 63.5585 172.906 63.7772C172.5 63.9908 172.031 64.0975 171.5 64.0975C170.979 64.0975 170.526 63.9986 170.141 63.8007C169.755 63.5975 169.43 63.3111 169.164 62.9413C168.898 62.5715 168.685 62.1418 168.523 61.6522C168.367 61.1574 168.25 60.6184 168.172 60.035V59.5116C168.25 58.8918 168.367 58.3293 168.523 57.8241C168.685 57.3137 168.898 56.8736 169.164 56.5038C169.43 56.1288 169.753 55.8397 170.133 55.6366C170.518 55.4335 170.969 55.3319 171.484 55.3319C172.021 55.3319 172.492 55.4335 172.898 55.6366C173.31 55.8397 173.656 56.1314 173.938 56.5116C174.219 56.8918 174.43 57.3449 174.57 57.871C174.711 58.397 174.781 58.983 174.781 59.6288ZM172.711 59.7928V59.6288C172.711 59.2538 172.677 58.9074 172.609 58.5897C172.542 58.2668 172.438 57.9856 172.297 57.746C172.156 57.5012 171.974 57.3111 171.75 57.1757C171.526 57.0402 171.255 56.9725 170.938 56.9725C170.62 56.9725 170.346 57.0246 170.117 57.1288C169.888 57.233 169.701 57.3814 169.555 57.5741C169.409 57.7668 169.294 57.996 169.211 58.2616C169.133 58.522 169.081 58.8111 169.055 59.1288V60.4257C169.102 60.8111 169.193 61.1574 169.328 61.4647C169.464 61.772 169.661 62.0168 169.922 62.1991C170.188 62.3814 170.531 62.4725 170.953 62.4725C171.271 62.4725 171.542 62.4022 171.766 62.2616C171.99 62.121 172.172 61.9283 172.312 61.6835C172.453 61.4335 172.555 61.147 172.617 60.8241C172.68 60.5012 172.711 60.1574 172.711 59.7928ZM178.672 63.0038L180.938 55.4882H183.148L179.758 65.2225C179.68 65.4309 179.578 65.6574 179.453 65.9022C179.333 66.147 179.172 66.3788 178.969 66.5975C178.766 66.8215 178.51 67.0038 178.203 67.1444C177.901 67.285 177.534 67.3553 177.102 67.3553C176.914 67.3553 176.747 67.3423 176.602 67.3163C176.456 67.2902 176.302 67.2564 176.141 67.2147V65.6678C176.193 65.6731 176.253 65.6757 176.32 65.6757C176.393 65.6809 176.456 65.6835 176.508 65.6835C176.81 65.6835 177.06 65.647 177.258 65.5741C177.456 65.5064 177.615 65.3944 177.734 65.2382C177.859 65.0871 177.964 64.8892 178.047 64.6444L178.672 63.0038ZM177.555 55.4882L179.469 61.7147L179.805 63.8944L178.383 64.1522L175.328 55.4882H177.555ZM188.305 60.3632H185.625L185.609 58.9647H187.812C188.141 58.9647 188.409 58.9309 188.617 58.8632C188.826 58.7955 188.979 58.6939 189.078 58.5585C189.182 58.4231 189.234 58.259 189.234 58.0663C189.234 57.8996 189.203 57.7564 189.141 57.6366C189.078 57.5116 188.984 57.41 188.859 57.3319C188.74 57.2538 188.586 57.1965 188.398 57.16C188.216 57.1184 188.003 57.0975 187.758 57.0975H186.359V63.9413H184.289V55.4882H187.758C188.305 55.4882 188.797 55.5376 189.234 55.6366C189.672 55.7303 190.044 55.8736 190.352 56.0663C190.659 56.259 190.893 56.5038 191.055 56.8007C191.221 57.0923 191.305 57.4361 191.305 57.8319C191.305 58.0923 191.247 58.3371 191.133 58.5663C191.018 58.7955 190.849 58.9986 190.625 59.1757C190.401 59.3527 190.125 59.4986 189.797 59.6132C189.469 59.7225 189.094 59.7902 188.672 59.8163L188.305 60.3632ZM188.305 63.9413H185.07L185.836 62.3319H188.305C188.607 62.3319 188.857 62.2955 189.055 62.2225C189.253 62.1444 189.398 62.0324 189.492 61.8866C189.591 61.7408 189.641 61.5637 189.641 61.3553C189.641 61.1522 189.594 60.9777 189.5 60.8319C189.411 60.6809 189.268 60.5663 189.07 60.4882C188.878 60.4048 188.622 60.3632 188.305 60.3632H186.172L186.188 58.9647H188.664L189.211 59.5194C189.773 59.5559 190.24 59.6705 190.609 59.8632C190.979 60.0507 191.255 60.2902 191.438 60.5819C191.62 60.8684 191.711 61.1835 191.711 61.5272C191.711 61.9283 191.635 62.2798 191.484 62.5819C191.333 62.884 191.112 63.1366 190.82 63.3397C190.529 63.5376 190.172 63.6887 189.75 63.7928C189.328 63.8918 188.846 63.9413 188.305 63.9413ZM197.867 62.1444V58.246C197.867 57.9595 197.818 57.7121 197.719 57.5038C197.62 57.2955 197.469 57.134 197.266 57.0194C197.062 56.9048 196.805 56.8475 196.492 56.8475C196.216 56.8475 195.974 56.8944 195.766 56.9882C195.562 57.0819 195.406 57.2147 195.297 57.3866C195.188 57.5533 195.133 57.746 195.133 57.9647H193.062C193.062 57.6158 193.146 57.285 193.312 56.9725C193.479 56.6548 193.716 56.3736 194.023 56.1288C194.336 55.8788 194.708 55.6835 195.141 55.5428C195.578 55.4022 196.068 55.3319 196.609 55.3319C197.25 55.3319 197.82 55.4413 198.32 55.66C198.826 55.8736 199.221 56.1965 199.508 56.6288C199.799 57.0611 199.945 57.6053 199.945 58.2616V61.9491C199.945 62.371 199.971 62.733 200.023 63.035C200.081 63.3319 200.164 63.5897 200.273 63.8085V63.9413H198.172C198.073 63.7277 197.997 63.4569 197.945 63.1288C197.893 62.7955 197.867 62.4673 197.867 62.1444ZM198.156 58.7928L198.172 60.0194H196.867C196.544 60.0194 196.26 60.0533 196.016 60.121C195.771 60.1835 195.57 60.2772 195.414 60.4022C195.258 60.522 195.141 60.6678 195.062 60.8397C194.984 61.0064 194.945 61.1965 194.945 61.41C194.945 61.6184 194.992 61.8059 195.086 61.9725C195.185 62.1392 195.326 62.272 195.508 62.371C195.695 62.4647 195.914 62.5116 196.164 62.5116C196.529 62.5116 196.846 62.4387 197.117 62.2928C197.388 62.1418 197.599 61.9595 197.75 61.746C197.901 61.5324 197.982 61.3293 197.992 61.1366L198.586 62.0272C198.513 62.2408 198.404 62.4673 198.258 62.7069C198.112 62.9465 197.924 63.1705 197.695 63.3788C197.466 63.5871 197.19 63.759 196.867 63.8944C196.544 64.0298 196.169 64.0975 195.742 64.0975C195.195 64.0975 194.706 63.9882 194.273 63.7694C193.841 63.5507 193.5 63.2512 193.25 62.871C193 62.4908 192.875 62.0585 192.875 61.5741C192.875 61.1262 192.958 60.7303 193.125 60.3866C193.292 60.0428 193.539 59.7538 193.867 59.5194C194.195 59.2798 194.602 59.1001 195.086 58.9803C195.576 58.8553 196.135 58.7928 196.766 58.7928H198.156ZM205.781 55.4882V63.9413H203.711V55.4882H205.781ZM208.531 55.4882V57.0975H201.008V55.4882H208.531ZM211.828 60.996L214.906 55.4882H216.977V63.9413H214.906V58.4257L211.828 63.9413H209.758V55.4882H211.828V60.996ZM221.203 52.5663L220.977 60.5272H219.234L219.008 52.5663H221.203ZM218.945 62.9803C218.945 62.6731 219.049 62.4152 219.258 62.2069C219.471 61.9934 219.758 61.8866 220.117 61.8866C220.477 61.8866 220.76 61.9934 220.969 62.2069C221.182 62.4152 221.289 62.6731 221.289 62.9803C221.289 63.2824 221.182 63.5376 220.969 63.746C220.76 63.9543 220.477 64.0585 220.117 64.0585C219.758 64.0585 219.471 63.9543 219.258 63.746C219.049 63.5376 218.945 63.2824 218.945 62.9803Z" fill="#1C0627"/>
<defs>
<radialGradient id="paint0_radial_74707_345" cx="0" cy="0" r="1" gradientUnits="userSpaceOnUse" gradientTransform="translate(3.22473 4.53919) rotate(90) scale(4.53919 3.22473)">
<stop stop-color="#FFBBBB"/>
<stop offset="1" stop-color="#FFBBBB" stop-opacity="0"/>
</radialGradient>
<radialGradient id="paint1_radial_74707_345" cx="0" cy="0" r="1" gradientUnits="userSpaceOnUse" gradientTransform="translate(3.22417 4.53997) rotate(90) scale(4.53997 3.22417)">
<stop stop-color="#FFBBBB"/>
<stop offset="1" stop-color="#FFBBBB" stop-opacity="0"/>
</radialGradient>
</defs>
</svg>
